<!DOCTYPE svg PUBLIC "-//W3C//DTD SVG 1.1//EN" "http://www.w3.org/Graphics/SVG/1.1/DTD/svg11.dtd">
<!-- Uploaded to: SVG Repo, www.svgrepo.com, Transformed by: SVG Repo Mixer Tools -->
<svg width="800px" height="800px" viewBox="0 0 24 24" fill="none" xmlns="http://www.w3.org/2000/svg" stroke="#f2f2f2">
<g id="SVGRepo_bgCarrier" stroke-width="0"/>
<g id="SVGRepo_tracerCarrier" stroke-linecap="round" stroke-linejoin="round"/>
<g id="SVGRepo_iconCarrier"> <path d="M3 15V9C3 5.68629 5.68629 3 9 3H15C18.3137 3 21 5.68629 21 9V15C21 18.3137 18.3137 21 15 21H9C5.68629 21 3 18.3137 3 15Z" stroke="#f2f2f2" stroke-width="1.5" stroke-linecap="round" stroke-linejoin="round"/> <path d="M15 3C15 3 10.5 3 10.5 12C12 12 12 12 13 12C13 21 15 21 15 21" stroke="#f2f2f2" stroke-width="1.5" stroke-linecap="round" stroke-linejoin="round"/> <path d="M16.5 14.5C16.5 14.5 15 16.5 12 16.5C9 16.5 7.5 14.5 7.5 14.5" stroke="#f2f2f2" stroke-width="1.5" stroke-linecap="round" stroke-linejoin="round"/> <path d="M7 9V11" stroke="#f2f2f2" stroke-width="1.5" stroke-linecap="round" stroke-linejoin="round"/> <path d="M17 9V11" stroke="#f2f2f2" stroke-width="1.5" stroke-linecap="round" stroke-linejoin="round"/> </g>
</svg>