<!DOCTYPE svg PUBLIC "-//W3C//DTD SVG 1.1//EN" "http://www.w3.org/Graphics/SVG/1.1/DTD/svg11.dtd">
<!-- Uploaded to: SVG Repo, www.svgrepo.com, Transformed by: SVG Repo Mixer Tools -->
<svg fill="#f2f2f2" width="800px" height="800px" viewBox="0 0 24 24" id="screen-capture" data-name="Flat Color" xmlns="http://www.w3.org/2000/svg" class="icon flat-color" stroke="#f2f2f2">
<g id="SVGRepo_bgCarrier" stroke-width="0"/>
<g id="SVGRepo_tracerCarrier" stroke-linecap="round" stroke-linejoin="round"/>
<g id="SVGRepo_iconCarrier">
<circle id="secondary" cx="12" cy="12" r="4" style="fill: #f2f2f22f2f2;"/>
<path id="primary" d="M21,10a1,1,0,0,1-1-1V4H15a1,1,0,0,1,0-2h5a2,2,0,0,1,2,2V9A1,1,0,0,1,21,10Zm1,10V15a1,1,0,0,0-2,0v5H15a1,1,0,0,0,0,2h5A2,2,0,0,0,22,20ZM4,9V4H9A1,1,0,0,0,9,2H4A2,2,0,0,0,2,4V9A1,1,0,0,0,4,9Zm6,12a1,1,0,0,0-1-1H4V15a1,1,0,0,0-2,0v5a2,2,0,0,0,2,2H9A1,1,0,0,0,10,21Z" style="fill: #f2f2f2;"/>
</g>
</svg>